# xmcd
#
# Track frame offsets: 
#        150
#        16047
#        33525
#
# Disc length: 677 seconds
#
# Revision: 1
# Processed by: cddbd v1.5.2PL0 Copyright (c) Steve Scherf et al.
# Submitted via: ExactAudioCopy v1.0b6
#
DISCID=1702a303
DTITLE=SPARKS GO GO - A GREAT HIT
DYEAR=1992
DGENRE=Rock
TTITLE0=革命列車 (LIVE)
TTITLE1=ダイヤモンド・リル (LIVE)
TTITLE2=Twilight Moon (LIVE)
EXTD=YEAR: 1992
EXTT0=
EXTT1=
EXTT2=
PLAYORDER=
